<svg width="20" height="20" viewBox="0 0 20 20" fill="none" xmlns="http://www.w3.org/2000/svg">
<path d="M16.666 3.33337H3.33268C2.41602 3.33337 1.67435 4.08337 1.67435 5.00004L1.66602 15C1.66602 15.9167 2.41602 16.6667 3.33268 16.6667H16.666C17.5827 16.6667 18.3327 15.9167 18.3327 15V5.00004C18.3327 4.08337 17.5827 3.33337 16.666 3.33337ZM16.3327 6.87504L10.441 10.5584C10.1743 10.725 9.82435 10.725 9.55768 10.5584L3.66602 6.87504C3.58246 6.82813 3.50928 6.76476 3.45092 6.68875C3.39256 6.61275 3.35023 6.52569 3.3265 6.43285C3.30276 6.34001 3.2981 6.24332 3.31281 6.14863C3.32752 6.05394 3.3613 5.96322 3.41208 5.88196C3.46287 5.8007 3.52962 5.73059 3.60829 5.67587C3.68696 5.62115 3.77591 5.58297 3.86976 5.56362C3.96362 5.54428 4.06042 5.54418 4.15431 5.56333C4.2482 5.58248 4.33724 5.62049 4.41602 5.67504L9.99935 9.16671L15.5827 5.67504C15.6615 5.62049 15.7505 5.58248 15.8444 5.56333C15.9383 5.54418 16.0351 5.54428 16.1289 5.56362C16.2228 5.58297 16.3117 5.62115 16.3904 5.67587C16.4691 5.73059 16.5358 5.8007 16.5866 5.88196C16.6374 5.96322 16.6712 6.05394 16.6859 6.14863C16.7006 6.24332 16.6959 6.34001 16.6722 6.43285C16.6485 6.52569 16.6061 6.61275 16.5478 6.68875C16.4894 6.76476 16.4162 6.82813 16.3327 6.87504Z" fill="#6D6D6D"/>
</svg>
