<svg width="20" height="21" viewBox="0 0 20 21" fill="none" xmlns="http://www.w3.org/2000/svg">
<g clip-path="url(#clip0_380_1210)">
<path d="M16.6673 10.5V5.29079C16.6674 5.22501 16.6544 5.15987 16.6293 5.0991C16.6041 5.03832 16.5672 4.98311 16.5207 4.93663L13.8973 2.31329C13.8036 2.2195 13.6765 2.16674 13.544 2.16663H3.83398C3.70138 2.16663 3.5742 2.2193 3.48043 2.31307C3.38666 2.40684 3.33398 2.53402 3.33398 2.66663V18.3333C3.33398 18.4659 3.38666 18.5931 3.48043 18.6868C3.5742 18.7806 3.70138 18.8333 3.83398 18.8333H10.834M6.66732 8.83329H13.334M6.66732 5.49996H10.0007M6.66732 12.1666H9.16732" stroke="#6D6D6D" stroke-width="1.25" stroke-linecap="round" stroke-linejoin="round"/>
<path d="M13.334 2.16663V4.99996C13.334 5.13257 13.3867 5.25974 13.4804 5.35351C13.5742 5.44728 13.7014 5.49996 13.834 5.49996H16.6673M16.6607 13.1041L18.7907 13.645C19.0123 13.7016 19.1682 13.9033 19.1615 14.1316C19.0182 18.93 16.2507 19.6666 16.2507 19.6666C16.2507 19.6666 13.4832 18.93 13.3398 14.1316C13.3375 14.0205 13.373 13.912 13.4403 13.8236C13.5077 13.7352 13.6029 13.6722 13.7107 13.645L15.8407 13.1041C16.1098 13.0358 16.3915 13.0358 16.6607 13.1041Z" stroke="#6D6D6D" stroke-width="1.25" stroke-linecap="round" stroke-linejoin="round"/>
</g>
<defs>
<clipPath id="clip0_380_1210">
<rect width="20" height="20" fill="white" transform="translate(0 0.5)"/>
</clipPath>
</defs>
</svg>
